<svg xmlns="http://www.w3.org/2000/svg" viewBox="0 0 150.04 142.71"><g id="Layer_2" data-name="Layer 2"><g id="Layer_1-2" data-name="Layer 1"><polygon class="cls-1" points="40.21 90.21 5.37 56.27 53.5 49.27 75.02 5.65 96.55 49.26 144.68 56.24 109.86 90.2 118.09 138.13 75.04 115.51 31.99 138.15 40.21 90.21"/><path class="cls-1" d="M75,9,94.86,49.22l.7,1.41,1.56.23,44.34,6.43L109.38,88.57l-1.13,1.1.27,1.55,7.58,44.16L76.44,114.54l-1.4-.73-1.4.73L34,135.4l7.57-44.16.27-1.55-1.13-1.1L8.6,57.32l44.34-6.45,1.56-.23.7-1.41L75,9m0-6.78L52.5,47.89,2.15,55.22,38.59,90.73,30,140.88l45-23.69,45,23.67-8.61-50.15,36.43-35.53L97.53,47.87,75,2.26Z"/></g></g></svg>