<svg xmlns="http://www.w3.org/2000/svg" viewBox="0 0 147.89 140.66"><defs><style>.cls-1{fill:gray;stroke:gray;stroke-miterlimit:10;}</style></defs><g id="Layer_2" data-name="Layer 2"><g id="Layer_1-2" data-name="Layer 1"><polygon class="cls-1" points="39.13 89.08 4.29 55.14 52.42 48.14 73.94 4.52 95.47 48.13 143.6 55.11 108.78 89.07 117.01 137 73.96 114.38 30.91 137.02 39.13 89.08"/><path class="cls-1" d="M73.94,7.91,93.78,48.09l.7,1.41,1.56.23,44.34,6.43L108.3,87.44l-1.13,1.1.27,1.55L115,134.25,75.36,113.41l-1.4-.73-1.4.73L32.9,134.27l7.57-44.16.27-1.55-1.13-1.1L7.52,56.19l44.34-6.45,1.56-.23.7-1.41L73.94,7.91m0-6.78L51.42,46.76,1.07,54.09,37.51,89.6l-8.59,50.15,45-23.69,45,23.67-8.61-50.15,36.43-35.53L96.45,46.74,73.93,1.13Z"/></g></g></svg>